<svg xmlns="http://www.w3.org/2000/svg" width="285pt" height="256pt" viewBox="0 0 285 256" preserveAspectRatio="xMidYMid meet">
  <defs>
    <filter id="thicken" x="-50%" y="-50%" width="200%" height="200%">
      <feMorphology in="SourceGraphic" operator="dilate" radius="40" result="thickened"/>
      <feMerge>
        <feMergeNode in="thickened"/>
      </feMerge>
    </filter>
  </defs>

  <g transform="translate(0,256) scale(0.1,-0.1)" fill="#ffffff" stroke="none" filter="url(#thicken)">
    <path d="M1315 2225 c-55 -7 -170 -25 -255 -39 -85 -14 -173 -26 -196 -26 -72 0 -78 -14 -71 -155 10 -182 112 -632 159 -698 l23 -32 3 57 c3 48 -7 88 -58 245 -71 219 -96 315 -111 435 -15 128 -15 128 89 128 48 0 150 7 227 15 189 20 374 19 476 -1 79 -16 83 -16 96 1 19 27 16 53 -8 65 -33 18 -261 21 -374 5z"/>
    <path d="M1737 2140 c-116 -77 -182 -134 -375 -323 -155 -151 -200 -218 -119 -176 39 21 70 51 224 219 191 208 341 335 387 328 11 -2 35 -29 58 -68 22 -35 86 -130 143 -210 104 -147 193 -302 215 -375 25 -85 31 -95 60 -95 15 0 33 7 40 15 32 38 -97 252 -305 505 -71 85 -141 176 -157 203 -18 29 -37 47 -48 47 -11 0 -66 -31 -123 -70z"/>
    <path d="M688 1982 c-73 -78 -150 -231 -243 -482 -32 -85 -73 -189 -92 -229 -18 -41 -32 -80 -29 -87 8 -22 221 -121 348 -162 305 -100 478 -141 478 -114 0 27 -81 56 -292 103 -123 27 -259 61 -303 76 -103 33 -205 81 -212 99 -3 7 17 58 45 111 27 54 73 150 102 213 66 148 157 301 226 379 30 34 54 65 54 69 0 13 -15 29 -36 40 -18 9 -25 7 -46 -16z"/>
    <path d="M1632 1602 c-28 -19 82 -60 273 -101 218 -48 362 -90 451 -132 93 -44 93 -44 39 -146 -25 -48 -76 -154 -114 -235 -84 -179 -153 -294 -221 -370 -56 -63 -60 -84 -18 -108 26 -14 29 -14 45 9 99 134 152 240 248 495 37 98 80 206 96 239 35 75 33 78 -95 140 -115 56 -195 85 -421 152 -192 57 -262 71 -283 57z"/>
    <path d="M1333 1400 c-33 -14 -81 -68 -93 -105 -23 -70 26 -162 98 -183 75 -23 100 -17 155 38 l50 50 -6 59 c-2 32 -12 70 -22 84 -30 46 -132 79 -182 57z"/>
    <path d="M1800 1164 c0 -42 15 -103 56 -228 80 -248 104 -347 111 -464 l6 -102 -79 0 c-43 0 -140 -7 -214 -15 -184 -20 -421 -19 -511 1 -80 18 -99 11 -99 -37 0 -40 23 -44 215 -43 136 0 193 6 381 37 121 20 239 37 262 37 59 0 66 18 58 149 -14 223 -136 721 -177 721 -5 0 -9 -25 -9 -56z"/>
    <path d="M412 1058 c-19 -19 -15 -35 33 -132 50 -99 124 -203 286 -402 58 -71 120 -150 138 -176 17 -27 40 -48 49 -48 55 1 254 154 464 359 160 156 200 203 185 217 -16 16 -118 -73 -242 -211 -146 -163 -273 -281 -353 -327 -26 -15 -50 -28 -54 -28 -4 0 -22 25 -39 55 -17 30 -82 127 -145 216 -133 189 -193 295 -230 408 -25 74 -29 81 -54 81 -14 0 -31 -5 -38 -12z"/>
  </g>
</svg>
